<svg width="28" height="28" viewBox="0 0 28 28" fill="none" xmlns="http://www.w3.org/2000/svg">
<path d="M5.14035 16.9435L9.10935 12.9745L12.4087 16.275L16.0919 12.5918L14 10.5H19.8334V16.3333L17.7415 14.2415L12.4087 19.5743L9.10935 16.275L6.22185 19.1613C7.5325 21.134 9.54408 22.5346 11.849 23.0794C14.1538 23.6241 16.5796 23.2723 18.6347 22.0951C20.6899 20.918 22.2206 19.0035 22.9168 16.7398C23.613 14.476 23.4225 12.0323 22.384 9.90372C21.3455 7.77517 19.5366 6.12103 17.3239 5.2765C15.1112 4.43197 12.6602 4.46021 10.4676 5.35551C8.27493 6.25081 6.50465 7.9462 5.51547 10.0981C4.52629 12.25 4.3922 14.6975 5.14035 16.9446V16.9435ZM3.34602 18.7611L3.33435 18.7495L3.33902 18.7448C2.67394 17.2515 2.33126 15.6347 2.33335 14C2.33335 7.55647 7.55652 2.3333 14 2.3333C20.4435 2.3333 25.6667 7.55647 25.6667 14C25.6667 20.4435 20.4435 25.6666 14 25.6666C9.25169 25.6666 5.16835 22.8316 3.34602 18.7611Z" fill="#6A6A9F"/>
</svg>
