<svg width="375" height="376" viewBox="0 0 375 376" fill="none" xmlns="http://www.w3.org/2000/svg">
<g filter="url(#filter0_d)">
<path d="M303.267 72.2155C286.173 55.1213 265.506 42.0236 242.75 33.8626C219.995 25.7017 195.715 22.6799 171.653 25.0142C147.591 27.3485 124.344 34.9809 103.581 47.3636C82.8186 59.7464 65.0548 76.5722 51.5651 96.6334C38.0753 116.695 29.1943 139.494 25.5595 163.394C21.9247 187.294 23.6263 211.702 30.542 234.866C37.4578 258.031 49.4163 279.377 65.559 297.373C81.7017 315.368 101.628 329.566 123.908 338.949" stroke="url(#paint0_linear)" stroke-width="6"/>
</g>
<path d="M112.853 333.8C150.138 352.883 193.318 356.955 233.513 345.178C273.708 333.401 307.863 306.671 328.955 270.484" stroke="#8424FF" stroke-width="6"/>
<g filter="url(#filter1_d)">
<path d="M317.057 287.866C342.594 254.722 354.462 213.053 350.219 171.427C345.976 129.802 325.945 91.3844 294.246 64.0746" stroke="url(#paint1_linear)" stroke-width="6"/>
</g>
<circle cx="295.395" cy="64.6819" r="7" fill="#05050F" stroke="#00F1E7" stroke-width="4"/>
<circle cx="317.395" cy="287.682" r="7" fill="#05050F" stroke="#FFB424" stroke-width="4"/>
<circle cx="113.395" cy="333.682" r="7" fill="#05050F" stroke="#8424FF" stroke-width="4"/>
<defs>
<filter id="filter0_d" x="3.0794" y="3.63054" width="319.927" height="355.701" filterUnits="userSpaceOnUse" color-interpolation-filters="sRGB">
<feFlood flood-opacity="0" result="BackgroundImageFix"/>
<feColorMatrix in="SourceAlpha" type="matrix" values="0 0 0 0 0 0 0 0 0 0 0 0 0 0 0 0 0 0 127 0"/>
<feOffset/>
<feGaussianBlur stdDeviation="8.8092"/>
<feColorMatrix type="matrix" values="0 0 0 0 0 0 0 0 0 0.945098 0 0 0 0 0.905882 0 0 0 0.42 0"/>
<feBlend mode="normal" in2="BackgroundImageFix" result="effect1_dropShadow"/>
<feBlend mode="normal" in="SourceGraphic" in2="effect1_dropShadow" result="shape"/>
</filter>
<filter id="filter1_d" x="274.669" y="44.1833" width="97.0115" height="263.132" filterUnits="userSpaceOnUse" color-interpolation-filters="sRGB">
<feFlood flood-opacity="0" result="BackgroundImageFix"/>
<feColorMatrix in="SourceAlpha" type="matrix" values="0 0 0 0 0 0 0 0 0 0 0 0 0 0 0 0 0 0 127 0"/>
<feOffset/>
<feGaussianBlur stdDeviation="8.8092"/>
<feColorMatrix type="matrix" values="0 0 0 0 1 0 0 0 0 0.501961 0 0 0 0 0.141176 0 0 0 0.44 0"/>
<feBlend mode="normal" in2="BackgroundImageFix" result="effect1_dropShadow"/>
<feBlend mode="normal" in="SourceGraphic" in2="effect1_dropShadow" result="shape"/>
</filter>
<linearGradient id="paint0_linear" x1="165.883" y1="119.746" x2="187.466" y2="348.785" gradientUnits="userSpaceOnUse">
<stop stop-color="#00F1E7"/>
<stop offset="1" stop-color="#007DF1"/>
</linearGradient>
<linearGradient id="paint1_linear" x1="345.368" y1="217.311" x2="327.532" y2="128.995" gradientUnits="userSpaceOnUse">
<stop stop-color="#FFB524"/>
<stop offset="1" stop-color="#FF5924"/>
</linearGradient>
</defs>
</svg>
