<svg width="24" height="24" viewBox="0 0 24 24" fill="none" xmlns="http://www.w3.org/2000/svg">
<path d="M4.87303 3.00031H19.127C19.2848 3.00028 19.4404 3.0376 19.581 3.10921C19.7216 3.18081 19.8433 3.28468 19.936 3.41231L23.759 8.66831C23.827 8.76183 23.8605 8.87601 23.8537 8.99142C23.847 9.10683 23.8004 9.21634 23.722 9.3013L12.367 21.6023C12.2771 21.6995 12.1522 21.7571 12.0198 21.7624C11.8875 21.7676 11.7584 21.7201 11.661 21.6303C11.654 21.6243 7.86103 17.5153 0.278033 9.3013C0.199637 9.21634 0.153106 9.10683 0.14636 8.99142C0.139614 8.87601 0.17307 8.76183 0.241033 8.66831L4.06403 3.41231C4.15681 3.28468 4.27848 3.18081 4.41908 3.10921C4.55969 3.0376 4.71524 3.00028 4.87303 3.00031ZM5.38303 5.00031L2.58303 8.85031L12 19.0503L21.417 8.85031L18.617 5.00031H5.38303Z" fill="#5A5A89"/>
</svg>
