<svg width="24" height="24" viewBox="0 0 24 24" fill="none" xmlns="http://www.w3.org/2000/svg">
<path d="M12.0002 3.00031C17.3922 3.00031 21.8782 6.88031 22.8192 12.0003C21.8792 17.1203 17.3922 21.0003 12.0002 21.0003C6.60815 21.0003 2.12215 17.1203 1.18115 12.0003C2.12115 6.88031 6.60815 3.00031 12.0002 3.00031ZM12.0002 19.0003C14.0396 18.9999 16.0185 18.3071 17.613 17.0355C19.2075 15.7638 20.3231 13.9886 20.7772 12.0003C20.3214 10.0136 19.2051 8.24031 17.6108 6.97033C16.0165 5.70035 14.0385 5.00883 12.0002 5.00883C9.96185 5.00883 7.98384 5.70035 6.38953 6.97033C4.79521 8.24031 3.67892 10.0136 3.22315 12.0003C3.67725 13.9886 4.79283 15.7638 6.3873 17.0355C7.98177 18.3071 9.96068 18.9999 12.0002 19.0003ZM12.0002 16.5003C10.8067 16.5003 9.66209 16.0262 8.81817 15.1823C7.97426 14.3384 7.50015 13.1938 7.50015 12.0003C7.50015 10.8068 7.97426 9.66224 8.81817 8.81833C9.66209 7.97441 10.8067 7.50031 12.0002 7.50031C13.1936 7.50031 14.3382 7.97441 15.1821 8.81833C16.026 9.66224 16.5002 10.8068 16.5002 12.0003C16.5002 13.1938 16.026 14.3384 15.1821 15.1823C14.3382 16.0262 13.1936 16.5003 12.0002 16.5003ZM12.0002 14.5003C12.6632 14.5003 13.2991 14.2369 13.7679 13.7681C14.2368 13.2992 14.5002 12.6633 14.5002 12.0003C14.5002 11.3373 14.2368 10.7014 13.7679 10.2325C13.2991 9.7637 12.6632 9.50031 12.0002 9.50031C11.3371 9.50031 10.7012 9.7637 10.2324 10.2325C9.76355 10.7014 9.50015 11.3373 9.50015 12.0003C9.50015 12.6633 9.76355 13.2992 10.2324 13.7681C10.7012 14.2369 11.3371 14.5003 12.0002 14.5003Z" fill="#5A5A89"/>
</svg>
