<svg width="32" height="32" viewBox="0 0 32 32" fill="none" xmlns="http://www.w3.org/2000/svg">
<g filter="url(#filter0_d)">
<path d="M9.67101 4.25701L17.414 12L16 13.414L12.554 9.96801C12.1113 10.7185 11.9259 11.5931 12.0258 12.4587C12.1257 13.3243 12.5055 14.1336 13.1075 14.7636C13.7095 15.3936 14.5007 15.8097 15.3609 15.9488C16.2211 16.0879 17.1031 15.9423 17.873 15.5341C18.6429 15.126 19.2584 14.4776 19.626 13.6876C19.9936 12.8976 20.0932 12.0092 19.9096 11.1574C19.726 10.3056 19.2693 9.53703 18.609 8.96856C17.9486 8.4001 17.1206 8.06282 16.251 8.00801L14.446 6.20301C15.8102 5.83717 17.2598 5.96434 18.5395 6.56214C19.8192 7.15995 20.847 8.19005 21.4419 9.47109C22.0368 10.7521 22.1607 12.202 21.7918 13.5654C21.4229 14.9288 20.5848 16.1184 19.4251 16.9246C18.2654 17.7309 16.8584 18.1022 15.4519 17.9732C14.0453 17.8441 12.7294 17.223 11.7358 16.2191C10.7422 15.2153 10.1345 13.8931 10.0199 12.4853C9.90524 11.0775 10.2909 9.67441 11.109 8.52301L9.68001 7.09401C8.48749 8.63136 7.8961 10.5506 8.01654 12.4925C8.13697 14.4344 8.96098 16.2659 10.3343 17.6441C11.7076 19.0224 13.5362 19.8528 15.4777 19.9802C17.4191 20.1075 19.3405 19.5229 20.882 18.3359C22.4236 17.1488 23.4798 15.4407 23.8528 13.5311C24.2258 11.6216 23.8902 9.64152 22.9086 7.96159C21.9271 6.28165 20.367 5.017 18.5204 4.40432C16.6737 3.79164 14.6671 3.87295 12.876 4.63301L11.374 3.13201C12.8017 2.38603 14.3891 1.99759 16 2.00001C21.523 2.00001 26 6.47701 26 12C26 17.523 21.523 22 16 22C10.477 22 6.00001 17.523 6.00001 12C5.9985 10.5178 6.32718 9.0538 6.96217 7.71446C7.59716 6.37511 8.52251 5.19403 9.67101 4.25701Z" fill="#6A6A9F"/>
</g>
<defs>
<filter id="filter0_d" x="0" y="0" width="32" height="32" filterUnits="userSpaceOnUse" color-interpolation-filters="sRGB">
<feFlood flood-opacity="0" result="BackgroundImageFix"/>
<feColorMatrix in="SourceAlpha" type="matrix" values="0 0 0 0 0 0 0 0 0 0 0 0 0 0 0 0 0 0 127 0"/>
<feOffset dy="4"/>
<feGaussianBlur stdDeviation="2"/>
<feColorMatrix type="matrix" values="0 0 0 0 0 0 0 0 0 0 0 0 0 0 0 0 0 0 0.25 0"/>
<feBlend mode="normal" in2="BackgroundImageFix" result="effect1_dropShadow"/>
<feBlend mode="normal" in="SourceGraphic" in2="effect1_dropShadow" result="shape"/>
</filter>
</defs>
</svg>
