<svg width="548" height="548" viewBox="0 0 548 548" fill="none" xmlns="http://www.w3.org/2000/svg">
<path d="M499.781 248.769C496.472 219.114 487.355 190.402 472.95 164.271C458.545 138.14 439.133 115.102 415.825 96.4726C392.516 77.8433 365.766 63.9874 337.103 55.696C308.439 47.4046 278.423 44.8401 248.769 48.149C219.114 51.4578 190.402 60.5751 164.271 74.9803C138.14 89.3856 115.102 108.797 96.4726 132.105C77.8433 155.414 63.9874 182.164 55.696 210.827C47.4046 239.491 44.8401 269.507 48.149 299.161C51.4578 328.816 60.5751 357.528 74.9803 383.659C89.3856 409.79 108.797 432.828 132.105 451.458C155.414 470.087 182.164 483.943 210.827 492.234C239.491 500.525 269.507 503.09 299.161 499.781C328.816 496.472 357.528 487.355 383.659 472.95C409.79 458.544 432.828 439.133 451.458 415.825C470.087 392.516 483.943 365.766 492.234 337.103C500.525 308.439 503.09 278.423 499.781 248.769L499.781 248.769Z" stroke="url(#paint0_linear)" stroke-width="20" stroke-dasharray="0.88 8.81"/>
<defs>
<linearGradient id="paint0_linear" x1="249.878" y1="58.0873" x2="346.2" y2="531.337" gradientUnits="userSpaceOnUse">
<stop stop-color="#00E0FF"/>
<stop offset="1" stop-color="#096BFF"/>
</linearGradient>
</defs>
</svg>
