<svg width="12" height="13" viewBox="0 0 12 13" fill="none" xmlns="http://www.w3.org/2000/svg">
<path d="M8.45447 1.99929H10.4193C10.5496 1.99929 10.6745 2.05104 10.7666 2.14316C10.8587 2.23528 10.9105 2.36022 10.9105 2.49049V10.3497C10.9105 10.48 10.8587 10.605 10.7666 10.6971C10.6745 10.7892 10.5496 10.8409 10.4193 10.8409H1.57763C1.44735 10.8409 1.32241 10.7892 1.2303 10.6971C1.13818 10.605 1.08643 10.48 1.08643 10.3497V2.49049C1.08643 2.36022 1.13818 2.23528 1.2303 2.14316C1.32241 2.05104 1.44735 1.99929 1.57763 1.99929H3.54244V1.01689H4.52485V1.99929H7.47206V1.01689H8.45447V1.99929ZM2.06883 4.94651V9.85854H9.92808V4.94651H2.06883ZM3.05124 5.92892H4.03364V6.91132H3.05124V5.92892ZM3.05124 7.89373H4.03364V8.87613H3.05124V7.89373ZM5.01605 5.92892H8.94567V6.91132H5.01605V5.92892ZM5.01605 7.89373H7.47206V8.87613H5.01605V7.89373Z" fill="white"/>
</svg>
