<svg style="position: absolute; width: 0; height: 0; overflow: hidden;" version="1.1" xmlns="http://www.w3.org/2000/svg" xmlns:xlink="http://www.w3.org/1999/xlink">
  <defs>
    <symbol id="icon-activity" viewBox="0 0 28 28">
      <title>Activity</title>
      <path d="M5.14035 16.9435L9.10935 12.9745L12.4087 16.275L16.0919 12.5918L14 10.5H19.8334V16.3333L17.7415 14.2415L12.4087 19.5743L9.10935 16.275L6.22185 19.1613C7.5325 21.134 9.54408 22.5346 11.849 23.0794C14.1538 23.6241 16.5796 23.2723 18.6347 22.0951C20.6899 20.918 22.2206 19.0035 22.9168 16.7398C23.613 14.476 23.4225 12.0323 22.384 9.90372C21.3455 7.77517 19.5366 6.12103 17.3239 5.2765C15.1112 4.43197 12.6602 4.46021 10.4676 5.35551C8.27493 6.25081 6.50465 7.9462 5.51547 10.0981C4.52629 12.25 4.3922 14.6975 5.14035 16.9446V16.9435ZM3.34602 18.7611L3.33435 18.7495L3.33902 18.7448C2.67394 17.2515 2.33126 15.6347 2.33335 14C2.33335 7.55647 7.55652 2.3333 14 2.3333C20.4435 2.3333 25.6667 7.55647 25.6667 14C25.6667 20.4435 20.4435 25.6666 14 25.6666C9.25169 25.6666 5.16835 22.8316 3.34602 18.7611Z"/>
    </symbol>
    <symbol id="icon-arrow-up" viewBox="0 0 12 8">
      <title>Arrow up</title>
      <path d="M5.99998 0L11.9999 8H-6.10352e-05L5.99998 0Z"/>
    </symbol> 
    <symbol id="icon-balance" viewBox="0 0 24 24">
      <title>Balance</title>
       <path d="M12 22C6.477 22 2 17.523 2 12C2 6.477 6.477 2 12 2C17.523 2 22 6.477 22 12C22 17.523 17.523 22 12 22ZM12 20C14.1217 20 16.1566 19.1571 17.6569 17.6569C19.1571 16.1566 20 14.1217 20 12C20 9.87827 19.1571 7.84344 17.6569 6.34315C16.1566 4.84285 14.1217 4 12 4C9.87827 4 7.84344 4.84285 6.34315 6.34315C4.84285 7.84344 4 9.87827 4 12C4 14.1217 4.84285 16.1566 6.34315 17.6569C7.84344 19.1571 9.87827 20 12 20ZM12 7.05L16.95 12L12 16.95L7.05 12L12 7.05ZM12 9.879L9.879 12L12 14.121L14.121 12L12 9.879Z" fill="#6A6A9F"/>
    </symbol>
    <symbol id="icon-crown" viewBox="0 0 40 40">
      <title>Crown</title>
      <path d="M3.33333 33.3336H36.6667V36.667H3.33333V33.3336ZM3.33333 10.0003L11.6667 15.8336L20 5.00031L28.3333 15.8336L36.6667 10.0003V30.0003H3.33333V10.0003ZM6.66667 16.402V26.667H33.3333V16.402L27.6333 20.392L20 10.467L12.3667 20.392L6.66667 16.4003V16.402Z" fill="#6A6A9F"/>
    </symbol>
    <symbol id="icon-views" viewBox="0 0 24 24">
      <title>Views</title>
      <path d="M12.0002 3.00031C17.3922 3.00031 21.8782 6.88031 22.8192 12.0003C21.8792 17.1203 17.3922 21.0003 12.0002 21.0003C6.60815 21.0003 2.12215 17.1203 1.18115 12.0003C2.12115 6.88031 6.60815 3.00031 12.0002 3.00031ZM12.0002 19.0003C14.0396 18.9999 16.0185 18.3071 17.613 17.0355C19.2075 15.7638 20.3231 13.9886 20.7772 12.0003C20.3214 10.0136 19.2051 8.24031 17.6108 6.97033C16.0165 5.70035 14.0385 5.00883 12.0002 5.00883C9.96185 5.00883 7.98384 5.70035 6.38953 6.97033C4.79521 8.24031 3.67892 10.0136 3.22315 12.0003C3.67725 13.9886 4.79283 15.7638 6.3873 17.0355C7.98177 18.3071 9.96068 18.9999 12.0002 19.0003ZM12.0002 16.5003C10.8067 16.5003 9.66209 16.0262 8.81817 15.1823C7.97426 14.3384 7.50015 13.1938 7.50015 12.0003C7.50015 10.8068 7.97426 9.66224 8.81817 8.81833C9.66209 7.97441 10.8067 7.50031 12.0002 7.50031C13.1936 7.50031 14.3382 7.97441 15.1821 8.81833C16.026 9.66224 16.5002 10.8068 16.5002 12.0003C16.5002 13.1938 16.026 14.3384 15.1821 15.1823C14.3382 16.0262 13.1936 16.5003 12.0002 16.5003ZM12.0002 14.5003C12.6632 14.5003 13.2991 14.2369 13.7679 13.7681C14.2368 13.2992 14.5002 12.6633 14.5002 12.0003C14.5002 11.3373 14.2368 10.7014 13.7679 10.2325C13.2991 9.7637 12.6632 9.50031 12.0002 9.50031C11.3371 9.50031 10.7012 9.7637 10.2324 10.2325C9.76355 10.7014 9.50015 11.3373 9.50015 12.0003C9.50015 12.6633 9.76355 13.2992 10.2324 13.7681C10.7012 14.2369 11.3371 14.5003 12.0002 14.5003Z" fill="#5A5A89"/>
    </symbol>
    <symbol id="icon-diamond" viewBox="0 0 24 24">
      <title>Diamond</title>
      <path d="M4.87303 3.00031H19.127C19.2848 3.00028 19.4404 3.0376 19.581 3.10921C19.7216 3.18081 19.8433 3.28468 19.936 3.41231L23.759 8.66831C23.827 8.76183 23.8605 8.87601 23.8537 8.99142C23.847 9.10683 23.8004 9.21634 23.722 9.3013L12.367 21.6023C12.2771 21.6995 12.1522 21.7571 12.0198 21.7624C11.8875 21.7676 11.7584 21.7201 11.661 21.6303C11.654 21.6243 7.86103 17.5153 0.278033 9.3013C0.199637 9.21634 0.153106 9.10683 0.14636 8.99142C0.139614 8.87601 0.17307 8.76183 0.241033 8.66831L4.06403 3.41231C4.15681 3.28468 4.27848 3.18081 4.41908 3.10921C4.55969 3.0376 4.71524 3.00028 4.87303 3.00031ZM5.38303 5.00031L2.58303 8.85031L12 19.0503L21.417 8.85031L18.617 5.00031H5.38303Z" fill="#5A5A89"/>
    </symbol>
    <symbol id="icon-wave" viewBox="0 0 24 24">
      <title>Wave</title>
      <path d="M12 20.0002C14.1217 20.0002 16.1566 19.1574 17.6569 17.6571C19.1571 16.1568 20 14.122 20 12.0002C20 9.87851 19.1571 7.84368 17.6569 6.34339C16.1566 4.8431 14.1217 4.00024 12 4.00024C9.87827 4.00024 7.84344 4.8431 6.34315 6.34339C4.84285 7.84368 4 9.87851 4 12.0002C4 14.122 4.84285 16.1568 6.34315 17.6571C7.84344 19.1574 9.87827 20.0002 12 20.0002ZM12 22.0002C6.477 22.0002 2 17.5232 2 12.0002C2 6.47724 6.477 2.00024 12 2.00024C17.523 2.00024 22 6.47724 22 12.0002C22 17.5232 17.523 22.0002 12 22.0002ZM12 16.0002C13.0609 16.0002 14.0783 15.5788 14.8284 14.8287C15.5786 14.0785 16 13.0611 16 12.0002C16 10.9394 15.5786 9.92196 14.8284 9.17182C14.0783 8.42167 13.0609 8.00024 12 8.00024C10.9391 8.00024 9.92172 8.42167 9.17157 9.17182C8.42143 9.92196 8 10.9394 8 12.0002C8 13.0611 8.42143 14.0785 9.17157 14.8287C9.92172 15.5788 10.9391 16.0002 12 16.0002ZM12 18.0002C10.4087 18.0002 8.88258 17.3681 7.75736 16.2429C6.63214 15.1177 6 13.5915 6 12.0002C6 10.4089 6.63214 8.88282 7.75736 7.7576C8.88258 6.63239 10.4087 6.00024 12 6.00024C13.5913 6.00024 15.1174 6.63239 16.2426 7.7576C17.3679 8.88282 18 10.4089 18 12.0002C18 13.5915 17.3679 15.1177 16.2426 16.2429C15.1174 17.3681 13.5913 18.0002 12 18.0002ZM12 14.0002C11.4696 14.0002 10.9609 13.7895 10.5858 13.4145C10.2107 13.0394 10 12.5307 10 12.0002C10 11.4698 10.2107 10.9611 10.5858 10.586C10.9609 10.211 11.4696 10.0002 12 10.0002C12.5304 10.0002 13.0391 10.211 13.4142 10.586C13.7893 10.9611 14 11.4698 14 12.0002C14 12.5307 13.7893 13.0394 13.4142 13.4145C13.0391 13.7895 12.5304 14.0002 12 14.0002Z" fill="#6A6A9F"/>
    </symbol>
    <symbol id="icon-chart" viewBox="0 0 24 24">
      <title>Chart</title>
      <path d="M3 13H7V22H3V13ZM17 9H21V22H17V9ZM10 3H14V22H10V3Z" fill="#6A6A9F"/>
    </symbol>
  </defs>
</svg>