<svg width="24" height="24" viewBox="0 0 24 24" fill="none" xmlns="http://www.w3.org/2000/svg">
<path d="M12 20.0002C14.1217 20.0002 16.1566 19.1574 17.6569 17.6571C19.1571 16.1568 20 14.122 20 12.0002C20 9.87851 19.1571 7.84368 17.6569 6.34339C16.1566 4.8431 14.1217 4.00024 12 4.00024C9.87827 4.00024 7.84344 4.8431 6.34315 6.34339C4.84285 7.84368 4 9.87851 4 12.0002C4 14.122 4.84285 16.1568 6.34315 17.6571C7.84344 19.1574 9.87827 20.0002 12 20.0002ZM12 22.0002C6.477 22.0002 2 17.5232 2 12.0002C2 6.47724 6.477 2.00024 12 2.00024C17.523 2.00024 22 6.47724 22 12.0002C22 17.5232 17.523 22.0002 12 22.0002ZM12 16.0002C13.0609 16.0002 14.0783 15.5788 14.8284 14.8287C15.5786 14.0785 16 13.0611 16 12.0002C16 10.9394 15.5786 9.92196 14.8284 9.17182C14.0783 8.42167 13.0609 8.00024 12 8.00024C10.9391 8.00024 9.92172 8.42167 9.17157 9.17182C8.42143 9.92196 8 10.9394 8 12.0002C8 13.0611 8.42143 14.0785 9.17157 14.8287C9.92172 15.5788 10.9391 16.0002 12 16.0002ZM12 18.0002C10.4087 18.0002 8.88258 17.3681 7.75736 16.2429C6.63214 15.1177 6 13.5915 6 12.0002C6 10.4089 6.63214 8.88282 7.75736 7.7576C8.88258 6.63239 10.4087 6.00024 12 6.00024C13.5913 6.00024 15.1174 6.63239 16.2426 7.7576C17.3679 8.88282 18 10.4089 18 12.0002C18 13.5915 17.3679 15.1177 16.2426 16.2429C15.1174 17.3681 13.5913 18.0002 12 18.0002ZM12 14.0002C11.4696 14.0002 10.9609 13.7895 10.5858 13.4145C10.2107 13.0394 10 12.5307 10 12.0002C10 11.4698 10.2107 10.9611 10.5858 10.586C10.9609 10.211 11.4696 10.0002 12 10.0002C12.5304 10.0002 13.0391 10.211 13.4142 10.586C13.7893 10.9611 14 11.4698 14 12.0002C14 12.5307 13.7893 13.0394 13.4142 13.4145C13.0391 13.7895 12.5304 14.0002 12 14.0002Z" fill="#6A6A9F"/>
</svg>
